<svg t="1716211464198" class="icon" viewBox="0 0 1024 1024" version="1.1" xmlns="http://www.w3.org/2000/svg" p-id="6011" width="200" height="200"><path d="M139.636364 0h744.727272a139.636364 139.636364 0 0 1 139.636364 139.636364v744.727272a139.636364 139.636364 0 0 1-139.636364 139.636364H139.636364a139.636364 139.636364 0 0 1-139.636364-139.636364V139.636364a139.636364 139.636364 0 0 1 139.636364-139.636364z m560.081454 558.855758c0-11.496727-3.909818-21.379879-11.946666-30.11491L452.654545 293.872485c-8.254061-8.285091-19.750788-15.406545-33.512727-21.379879-14.242909-5.973333-26.872242-8.73503-38.353454-8.73503h-136.843637c-11.481212 0-21.348848 4.359758-29.618424 12.644848-8.269576 8.269576-12.629333 18.152727-12.629333 29.63394v136.533333c0 11.481212 2.761697 24.576 8.719515 38.36897 5.973333 14.242909 12.629333 25.289697 21.364363 33.543757L466.897455 749.847273c8.269576 8.269576 18.137212 11.946667 29.618424 11.946666s21.348848-3.909818 30.083879-11.946666L687.771152 588.489697c7.586909-8.269576 11.946667-18.152727 11.946666-29.633939z m110.716121-30.471758L576.574061 293.85697c-8.22303-8.269576-19.642182-15.39103-33.357576-21.364364-14.149818-5.973333-26.701576-8.73503-38.120727-8.73503h-73.541819c11.419152 0 24.436364 2.761697 38.136243 8.73503 14.165333 5.973333 25.134545 12.629333 33.357576 21.364364l233.844363 234.52703c8.22303 8.73503 12.101818 18.618182 12.101818 30.099394s-3.878788 21.364364-12.101818 29.633939l-153.243151 154.59297c6.62497 6.671515 12.567273 11.481212 17.361454 14.708364 4.794182 3.211636 11.419152 4.344242 19.176728 4.344242 11.419152 0 21.255758-3.878788 29.928727-12.163879l160.31806-161.714424c8.22303-8.269576 11.869091-18.152727 11.869091-29.633939s-3.878788-20.898909-11.869091-29.866667zM338.97503 400.911515a40.649697 40.649697 0 0 1-29.944242 12.25697c-11.589818 0-21.566061-3.925333-29.913212-12.25697a40.494545 40.494545 0 0 1-12.288-29.882182c0-11.574303 3.940848-21.519515 12.288-29.866666 8.347152-8.331636 18.323394-12.25697 29.928727-12.25697 11.589818 0 21.566061 3.925333 29.928727 12.25697 8.347152 8.347152 12.055273 18.307879 12.055273 29.866666 0.698182 11.822545-3.723636 21.550545-12.055273 29.882182z" fill="#F1B619" p-id="6012"></path></svg>